# Blender 4.2.3 LTS
# www.blender.org
mtllib untitled.mtl
o Cube
v -2.184209 -3.250312 7.940249
v -2.184209 5.706445 7.940249
v -6.375697 -3.250312 3.983278
v -6.375697 5.706445 3.983278
v 7.754503 -3.250312 -2.587495
v 7.754503 5.706445 -2.587495
v 3.563015 -3.250312 -6.544467
v 3.563015 5.706445 -6.544467
vn -0.0000 -1.0000 -0.0000
vn -0.7272 -0.0000 -0.6865
vn 0.6865 -0.0000 -0.7272
vn -0.0000 1.0000 -0.0000
vn -0.6865 -0.0000 0.7272
vn 0.7272 -0.0000 0.6865
vt 0.625000 0.500000
vt 0.875000 0.500000
vt 0.875000 0.750000
vt 0.625000 0.750000
vt 0.375000 0.750000
vt 0.625000 1.000000
vt 0.375000 1.000000
vt 0.375000 0.000000
vt 0.625000 0.000000
vt 0.625000 0.250000
vt 0.375000 0.250000
vt 0.125000 0.500000
vt 0.375000 0.500000
vt 0.125000 0.750000
s 0
usemtl Material
f 1/1/1 3/4/1 7/3/1 5/2/1
f 4/5/2 8/7/2 7/6/2 3/4/2
f 8/8/3 6/11/3 5/10/3 7/9/3
f 6/12/4 8/14/4 4/5/4 2/13/4
f 2/13/5 4/5/5 3/4/5 1/1/5
f 6/11/6 2/13/6 1/1/6 5/10/6
